Patient4_TMGait_0pt8_01_left_15_GRF.mot
version=1
nRows=65
nColumns=19
inDegrees=no
endheader
time	F1x	F1y	F1z	M1x	M1y	M1z	F2x	F2y	F2z	M2x	M2y	M2z	EC1x	EC1y	EC1z	EC2x	EC2y	EC2z
16.01	-0.52525	11.1701	-5.4782	-1.4572	1.0841	13.9945	-48.6858	695.4628	-47.5227	275.9558	83.6165	839.8982	-0.0592	0.0182	-0.0073	-0.0462	0.0165	0.9585
16.0211	-0.4486	8.4878	-3.5586	-1.3356	0.5274	10.5596	-46.7304	706.6049	-51.281	280.7483	84.965	845.6997	-0.0592	0.0182	-0.0073	-0.0462	0.0165	0.9585
16.0323	-0.37558	6.2524	-1.9753	-1.2352	0.10305	7.7131	-44.7239	718.8857	-54.4162	285.9471	85.7868	852.5545	-0.0592	0.0182	-0.0073	-0.0462	0.0165	0.9585
16.0434	-0.30441	4.5707	-0.79213	-1.1605	-0.19248	5.5809	-42.6237	731.6258	-56.7544	291.2866	85.9668	859.8688	-0.0592	0.0182	-0.0073	-0.0462	0.0165	0.9585
16.0546	-0.27466	3.4337	0.0079908	-1.1124	-0.38156	4.1463	-40.3417	744.0927	-58.3052	296.4934	85.4858	866.8416	-0.0592	0.0182	-0.0073	-0.0462	0.0165	0.9585
16.0657	-0.27029	2.7357	0.4928	-1.0806	-0.48927	3.2605	-37.71	755.4649	-59.1775	301.2625	84.3645	872.489	-0.0592	0.0182	-0.0073	-0.0462	0.0165	0.9585
16.0769	-0.31002	2.3552	0.74562	-1.0547	-0.55058	2.773	-34.5691	764.9167	-59.5395	305.28	82.6617	875.8016	-0.0592	0.0182	-0.0073	-0.0462	0.0165	0.9585
16.088	-0.39063	2.154	0.84742	-1.0196	-0.59782	2.5021	-30.7423	771.6976	-59.5442	308.2629	80.417	875.8558	-0.0592	0.0182	-0.0073	-0.0462	0.0165	0.9585
16.0991	-0.52478	2.0083	0.87183	-0.95972	-0.66822	2.3155	-26.114	775.3543	-59.3185	310.0362	77.6672	872.1125	-0.0592	0.0182	-0.0073	-0.0462	0.0165	0.9585
16.1103	-0.70457	1.7797	0.87166	-0.84871	-0.78197	2.026	-20.637	775.8073	-58.9432	310.5719	74.4415	864.4985	-0.0592	0.0182	-0.0073	-0.0462	0.0165	0.9585
16.1214	-0.92724	1.3233	0.88157	-0.64991	-0.94926	1.465	-14.3912	773.4	-58.4897	310.0009	70.8165	853.4819	-0.0592	0.0182	-0.0073	-0.0462	0.0165	0.9585
16.1326	-1.159	0.50124	0.91507	-0.324	-1.1531	0.45619	-7.5473	768.8236	-58.0232	308.5846	66.9146	839.9529	-0.0592	0.0182	-0.0073	-0.0462	0.0165	0.9585
16.1437	-1.3586	-0.78598	0.96114	0.15735	-1.3543	-1.1391	-0.41147	762.9516	-57.618	306.647	62.922	825.0497	-0.0592	0.0182	-0.0073	-0.0462	0.0165	0.9585
16.1549	-1.4467	-2.5879	1.0043	0.80665	-1.4959	-3.3933	6.6853	756.6667	-57.3435	304.5042	59.0475	809.9223	-0.0592	0.0182	-0.0073	-0.0462	0.0165	0.9585
16.166	-1.3154	-4.8389	0.99357	1.5973	-1.4774	-6.2398	13.361	750.6564	-57.277	302.3879	55.528	795.5049	-0.0592	0.0182	-0.0073	-0.0462	0.0165	0.9585
16.1771	-0.82424	-7.3098	0.87958	2.447	-1.1843	-9.4	19.294	745.3557	-57.484	300.4259	52.5723	782.4252	-0.0592	0.0182	-0.0073	-0.0462	0.0165	0.9585
16.1883	0.23032	-9.5041	0.57046	3.183	-0.4357	-12.2511	24.241	740.9449	-58.0101	298.6514	50.3382	771.0092	-0.0592	0.0182	-0.0073	-0.0462	0.0165	0.9585
16.1994	2.0503	-10.5824	-0.024668	3.5143	0.96029	-13.7033	28.0923	737.4154	-58.8652	297.0325	48.895	761.3072	-0.0592	0.0182	-0.0073	-0.0462	0.0165	0.9585
16.2106	4.8526	-9.2778	-1.0174	3.0029	3.2178	-12.1335	30.9052	734.6043	-60.0263	295.4908	48.2136	753.1389	-0.0592	0.0182	-0.0073	-0.0462	0.0165	0.9585
16.2217	8.7421	-3.8514	-2.4969	1.0561	6.4855	-5.304	32.898	732.1724	-61.4407	293.9073	48.1686	746.0734	-0.0592	0.0182	-0.0073	-0.0462	0.0165	0.9585
16.2329	13.6555	7.8308	-4.5042	-3.0484	10.787	9.5238	34.3957	729.7148	-62.9846	292.1563	48.5201	739.564	-0.0592	0.0182	-0.0073	-0.0462	0.0165	0.9585
16.244	19.1833	28.1277	-6.999	-10.0995	15.9098	35.3984	35.74	726.6516	-64.4874	290.0654	48.967	732.8824	-0.0592	0.0182	-0.0073	-0.0462	0.0165	0.9585
16.2551	24.4179	59.1299	-9.734	-20.7841	21.211	75.021	37.2513	722.1585	-65.7248	287.3764	49.1638	725.072	-0.0592	0.0182	-0.0073	-0.0462	0.0165	0.9585
16.2663	27.7433	101.9249	-12.2198	-35.4306	25.4768	129.8394	39.1324	715.088	-66.423	283.7078	48.7612	714.8914	-0.0592	0.0182	-0.0073	-0.0462	0.0165	0.9585
16.2774	26.9137	155.7142	-13.5755	-53.7132	26.8238	198.9148	41.411	703.969	-66.2715	278.5488	47.447	700.8391	-0.0592	0.0182	-0.0073	-0.0462	0.0165	0.9585
16.2886	20.4619	218.0254	-12.8605	-74.7172	23.563	279.1947	43.9289	687.1467	-64.9987	271.2987	45.0221	681.2935	-0.0592	0.0182	-0.0073	-0.0462	0.0165	0.9585
16.2997	9.2365	285.081	-9.3224	-97.0792	15.0031	365.8138	46.3668	662.9787	-62.3992	261.3422	41.4165	654.6997	-0.0592	0.0182	-0.0073	-0.0462	0.0165	0.9585
16.3109	-4.2641	351.3679	-2.4188	-118.8899	1.3472	451.4097	48.3207	630.0959	-58.4077	248.1456	36.7268	619.8071	-0.0592	0.0182	-0.0073	-0.0462	0.0165	0.9585
16.322	-17.6733	411.2796	7.4962	-138.3111	-16.0331	528.3011	49.3528	587.6645	-53.1358	231.3647	31.2368	575.9127	-0.0592	0.0182	-0.0073	-0.0462	0.0165	0.9585
16.3331	-29.3362	462.665	19.0249	-154.6968	-34.7823	593.3523	49.0274	535.7932	-46.8165	210.9997	25.3388	523.2459	-0.0592	0.0182	-0.0073	-0.0462	0.0165	0.9585
16.3443	-38.5481	506.3009	30.801	-168.3968	-52.8696	647.4685	47.0192	475.6286	-39.8444	187.4483	19.5252	463.01	-0.0592	0.0182	-0.0073	-0.0462	0.0165	0.9585
16.3554	-45.146	544.2075	41.6822	-180.1732	-68.7964	693.2441	43.1524	409.3703	-32.6791	161.5161	14.2805	397.3828	-0.0592	0.0182	-0.0073	-0.0462	0.0165	0.9585
16.3666	-49.292	578.1399	50.8518	-190.6856	-81.5784	733.0595	37.4837	340.0285	-25.7562	134.342	9.9758	329.2832	-0.0592	0.0182	-0.0073	-0.0462	0.0165	0.9585
16.3777	-51.1309	608.9592	57.8121	-200.2746	-90.6813	768.0859	30.3588	271.1557	-19.437	107.295	6.809	262.1184	-0.0592	0.0182	-0.0073	-0.0462	0.0165	0.9585
16.3889	-50.8896	636.7071	62.6415	-208.9606	-96.2964	798.4806	22.4556	206.4096	-13.9882	81.8058	4.7608	199.3224	-0.0592	0.0182	-0.0073	-0.0462	0.0165	0.9585
16.4	-48.8678	661.047	65.6811	-216.6097	-98.9884	823.9524	14.6976	148.9636	-9.5566	59.1309	3.6048	143.8282	-0.0592	0.0182	-0.0073	-0.0462	0.0165	0.9585
16.4111	-45.4771	681.5834	67.4362	-223.0479	-99.5497	844.2169	7.9735	100.8723	-6.1378	40.1052	2.9856	97.4879	-0.0592	0.0182	-0.0073	-0.0462	0.0165	0.9585
16.4223	-41.2112	698.0096	68.4143	-228.1325	-98.7839	859.1185	2.8414	62.907	-3.635	25.058	2.5955	60.9572	-0.0592	0.0182	-0.0073	-0.0462	0.0165	0.9585
16.4334	-36.5675	710.205	68.9831	-231.7931	-97.3311	868.6928	-0.56804	34.7545	-1.8659	13.8887	2.2203	33.8819	-0.0592	0.0182	-0.0073	-0.0462	0.0165	0.9585
16.4446	-32.0222	718.3397	69.443	-234.0719	-95.711	873.3141	-2.4274	15.3699	-0.70297	6.1928	1.818	15.2389	-0.0592	0.0182	-0.0073	-0.0462	0.0165	0.9585
16.4557	-27.8667	723.0149	69.808	-235.1772	-94.0704	873.828	-3.0922	3.2715	-0.012686	1.387	1.4046	3.6003	-0.0592	0.0182	-0.0073	-0.0462	0.0165	0.9585
16.4669	-24.2584	725.1438	70.0135	-235.4257	-92.3958	871.4364	-3.0143	-3.2183	0.32452	-1.196	1.0399	-2.6315	-0.0592	0.0182	-0.0073	-0.0462	0.0165	0.9585
16.478	-21.216	725.6283	69.8853	-235.1373	-90.5093	867.2409	-2.5369	-5.7825	0.42073	-2.223	0.75162	-5.0801	-0.0592	0.0182	-0.0073	-0.0462	0.0165	0.9585
16.4891	-18.7432	725.2148	69.3819	-234.5634	-88.3676	862.1422	-1.9285	-5.8715	0.38071	-2.2702	0.54112	-5.1368	-0.0592	0.0182	-0.0073	-0.0462	0.0165	0.9585
16.5003	-16.7575	724.4412	68.599	-233.8778	-86.0537	856.7343	-1.3294	-4.6195	0.26437	-1.7877	0.40699	-3.8882	-0.0592	0.0182	-0.0073	-0.0462	0.0165	0.9585
16.5114	-15.1677	723.7168	67.6925	-233.2004	-83.7146	851.4485	-0.82942	-2.8207	0.1372	-1.089	0.32076	-2.1001	-0.0592	0.0182	-0.0073	-0.0462	0.0165	0.9585
16.5226	-13.874	723.2531	66.8514	-232.5885	-81.5223	846.4753	-0.44501	-0.98143	0.016539	-0.37441	0.27623	-0.27015	-0.0592	0.0182	-0.0073	-0.0462	0.0165	0.9585
16.5337	-12.8309	723.2119	66.1314	-232.0884	-79.5299	841.9599	-0.1707	0.62401	-0.073056	0.24894	0.24717	1.3455	-0.0592	0.0182	-0.0073	-0.0462	0.0165	0.9585
16.5449	-11.9645	723.6935	65.5352	-231.7337	-77.7239	837.977	0.0081867	1.88	-0.13529	0.73618	0.22917	2.6322	-0.0592	0.0182	-0.0073	-0.0462	0.0165	0.9585
16.556	-11.2091	724.7309	64.9861	-231.5425	-76.011	834.5481	0.1159	2.7743	-0.16439	1.0841	0.20586	3.5648	-0.0592	0.0182	-0.0073	-0.0462	0.0165	0.9585
16.5671	-10.4605	726.2421	64.4463	-231.4971	-74.321	831.5318	0.17436	3.3522	-0.17044	1.312	0.18005	4.1693	-0.0592	0.0182	-0.0073	-0.0462	0.0165	0.9585
16.5783	-9.6017	728.0554	63.9158	-231.5508	-72.6181	828.6727	0.19686	3.6801	-0.16813	1.4476	0.16223	4.498	-0.0592	0.0182	-0.0073	-0.0462	0.0165	0.9585
16.5894	-8.5035	729.9387	63.4097	-231.641	-70.8774	825.6444	0.19427	3.8352	-0.15915	1.5214	0.15183	4.6417	-0.0592	0.0182	-0.0073	-0.0462	0.0165	0.9585
16.6006	-7.0422	731.6657	62.9475	-231.7077	-69.0828	822.1462	0.17525	3.8784	-0.15896	1.5583	0.15736	4.6773	-0.0592	0.0182	-0.0073	-0.0462	0.0165	0.9585
16.6117	-5.0998	733.0266	62.5363	-231.6955	-67.2114	817.9073	0.14322	3.8823	-0.15943	1.583	0.16923	4.6842	-0.0592	0.0182	-0.0073	-0.0462	0.0165	0.9585
16.6229	-2.5902	733.8232	62.2067	-231.5484	-65.2785	812.7145	0.10766	3.866	-0.16921	1.6012	0.19408	4.6789	-0.0592	0.0182	-0.0073	-0.0462	0.0165	0.9585
16.634	0.5451	733.8914	61.9938	-231.2145	-63.3138	806.4054	0.058719	3.8495	-0.18618	1.6156	0.23678	4.6894	-0.0592	0.0182	-0.0073	-0.0462	0.0165	0.9585
16.6451	4.2984	733.0901	61.9265	-230.6469	-61.3596	798.8769	-0.0036426	3.7971	-0.21931	1.6109	0.31173	4.6632	-0.0592	0.0182	-0.0073	-0.0462	0.0165	0.9585
16.6563	8.6359	731.3788	62.0267	-229.8277	-59.4563	790.1427	-0.094874	3.671	-0.27421	1.5687	0.43091	4.5459	-0.0592	0.0182	-0.0073	-0.0462	0.0165	0.9585
16.6674	13.4858	728.8149	62.2802	-228.7684	-57.617	780.3351	-0.2024	3.3849	-0.36165	1.4532	0.60165	4.2098	-0.0592	0.0182	-0.0073	-0.0462	0.0165	0.9585
16.6786	18.7748	725.625	62.6898	-227.5263	-55.8615	769.7501	-0.34232	2.8483	-0.47761	1.2223	0.81973	3.5464	-0.0592	0.0182	-0.0073	-0.0462	0.0165	0.9585
16.6897	24.426	722.2154	63.2787	-226.2081	-54.2239	758.8736	-0.47769	1.935	-0.62081	0.82207	1.0688	2.384	-0.0592	0.0182	-0.0073	-0.0462	0.0165	0.9585
16.7009	30.3772	719.2223	64.1099	-224.9925	-52.7703	748.4463	-0.61052	0.53802	-0.77463	0.20462	1.319	0.57867	-0.0592	0.0182	-0.0073	-0.0462	0.0165	0.9585
16.712	36.5636	717.4993	65.2626	-224.1309	-51.5769	739.4262	-0.67336	-1.4207	-0.91041	-0.65935	1.5036	-1.9922	-0.0592	0.0182	-0.0073	-0.0462	0.0165	0.9585
16.7231	42.8936	717.9588	66.8015	-223.8993	-50.7144	732.8061	-0.62515	-3.9119	-0.99567	-1.7525	1.5457	-5.277	-0.0592	0.0182	-0.0073	-0.0462	0.0165	0.9585
